<svg width="12" height="7" viewBox="0 0 12 7" fill="none" xmlns="http://www.w3.org/2000/svg">
<g id="&#240;&#159;&#166;&#134; icon &#34;angle-down&#34;">
<path id="Vector" d="M11.6633 0.779313C11.45 0.600415 11.1615 0.5 10.8607 0.5C10.56 0.5 10.2715 0.600415 10.0582 0.779313L5.97154 4.17957L1.94179 0.779313C1.72851 0.600415 1.43999 0.5 1.13926 0.5C0.838521 0.5 0.550005 0.600415 0.336721 0.779313C0.230026 0.868606 0.145339 0.974841 0.0875465 1.09189C0.0297541 1.20894 0 1.33448 0 1.46129C0 1.58809 0.0297541 1.71363 0.0875465 1.83068C0.145339 1.94773 0.230026 2.05396 0.336721 2.14326L5.16331 6.21588C5.26914 6.30591 5.39504 6.37736 5.53376 6.42613C5.67248 6.47489 5.82127 6.5 5.97154 6.5C6.12182 6.5 6.2706 6.47489 6.40932 6.42613C6.54804 6.37736 6.67394 6.30591 6.77977 6.21588L11.6633 2.14326C11.77 2.05396 11.8547 1.94773 11.9125 1.83068C11.9702 1.71363 12 1.58809 12 1.46129C12 1.33448 11.9702 1.20894 11.9125 1.09189C11.8547 0.974841 11.77 0.868606 11.6633 0.779313Z" fill="white"/>
</g>
</svg>
